# xmcd
#
# Track frame offsets:
#	150
#	3107
#	21200
#	36842
#	53472
#	68870
#	82595
#	97407
#	117015
#	129967
#	147532
#
# Disc length: 2204 seconds
#
# Revision: 0
# Processed by: cddbd v1.4PL0 Copyright (c) Steve Scherf et al.
# Submitted via: dBpowerAMP V4.0
#
DISCID=84089a0b
DTITLE=Ronnie Milsap - It Was Almost Like a Song
DYEAR=1977
DGENRE=Country
TTITLE0=Introduction - Ronnie Milsap
TTITLE1=What a Difference You've Made in My Life
TTITLE2=No One Will Ever Know
TTITLE3=It Was Almost Like a Song
TTITLE4=Selfish
TTITLE5=Long Distance Memory
TTITLE6=Here in Love
TTITLE7=The Future Is Not What It Used to Be
TTITLE8=It Don't Hurt to Dream
TTITLE9=Crystal Fallin' Rain
TTITLE10=The Lovin' Kind
EXTD=Album Name:  It Was Almost Like a Song (1977]\nTrack#1>  Introduction - Ronnie Milsap\nTrack#2>  What a Difference You've Made in My Life\nTrack#3>  No One Will Ever Know\nTrack#4>  It Was Almost Like a Song\nTrack#5>  Selfish\nTrack#6>  Long Dista
EXTD=nce Memory\nTrack#7>  Here in Love\nTrack#8>  The Future Is Not What It Used To Be\nTrack#9>  It Don't Hurt to Dream\nTrack#10> Crystal Fallin' Rain\nTrack#11> The Lovin' Kind
EXTT0=
EXTT1=
EXTT2=
EXTT3=
EXTT4=
EXTT5=
EXTT6=
EXTT7=
EXTT8=
EXTT9=
EXTT10=
PLAYORDER=
